<?xml version="1.0" encoding="iso-8859-1"?>
<!-- Uploaded to: SVG Repo, www.svgrepo.com, Generator: SVG Repo Mixer Tools -->
<svg fill="#000000" height="800px" width="800px" version="1.1" id="Layer_1" xmlns="http://www.w3.org/2000/svg" xmlns:xlink="http://www.w3.org/1999/xlink"
	 viewBox="0 0 512 512" xml:space="preserve">
<g>
	<g>
		<path d="M256.004,25.653c-13.851,0-25.119,11.268-25.119,25.119c0,13.851,11.268,25.119,25.119,25.119
			c13.851,0,25.119-11.268,25.119-25.119C281.123,36.922,269.855,25.653,256.004,25.653z M256.004,59.858
			c-5.01,0-9.086-4.076-9.086-9.086c0-5.01,4.076-9.086,9.086-9.086c5.01,0,9.086,4.076,9.086,9.086
			C265.09,55.782,261.014,59.858,256.004,59.858z"/>
	</g>
</g>
<g>
	<g>
		<path d="M340.981,359.395v-52.869c3.245-0.414,6.474-1.372,9.554-2.934c14.454-7.333,20.247-25.058,12.914-39.513l-18.312-36.095
			c-1.945-3.836-4.77-7.261-8.167-9.903c-9.683-7.531-20.469-13.358-32.094-17.388l1.582-5.455c1.17-4.035-0.974-8.29-4.914-9.75
			c-12.163-4.508-24.752-7.169-37.525-7.955v-41.784h17.637c4.428,0,8.017-3.589,8.017-8.017V88.755
			c10.909-9.636,17.102-23.254,17.102-37.982C306.776,22.777,283.999,0,256.003,0c-27.995,0-50.772,22.777-50.772,50.772
			c0,14.728,6.194,28.346,17.102,37.982v38.978c0,4.427,3.588,8.017,8.017,8.017h17.637v41.807
			c-11.565,0.714-22.979,2.945-34.024,6.711c-4.029,1.374-6.282,5.654-5.133,9.753l4.05,14.44
			c-19.704,10.783-36.276,26.478-48.116,45.636c-12.688,20.529-19.394,44.138-19.394,68.272v19.144c0,4.427,3.588,8.017,8.017,8.017
			c4.428,0,8.017-3.589,8.017-8.017v-19.144c0-21.156,5.879-41.848,17-59.843c9.725-15.734,23.086-28.805,38.937-38.165
			l7.547,26.913c-23.082,16.265-36.761,42.575-36.761,71.095v89.156c0,31.827,25.894,57.72,57.72,57.72h3.883
			c14.21,0,27.868-5.214,38.461-14.681c0.154-0.137,0.301-0.28,0.445-0.429l33.011-34.43c1.431-1.492,2.23-3.48,2.23-5.548v-25.614
			c0-1.86,0.384-3.63,1.073-5.24v9.515c0,4.427,3.588,8.017,8.017,8.017c4.428,0,8.017-3.589,8.017-8.017v-17.093
			c5.549,1.625,9.616,6.75,9.616,12.817v34.205c0,3.463-1.319,6.747-3.718,9.247l-39.475,41.174
			c-0.198,0.206-0.401,0.406-0.616,0.603c-15.615,14.313-35.88,22.196-57.06,22.196h-3.883c-46.562,0-84.443-37.88-84.443-84.443
			v-35.808c0-4.427-3.588-8.017-8.017-8.017c-4.428,0-8.017,3.589-8.017,8.017v35.808c0,55.403,45.073,100.476,100.476,100.476
			h3.883c25.202,0,49.314-9.38,67.891-26.406c0.467-0.428,0.918-0.87,1.359-1.33l39.476-41.174
			c5.273-5.499,8.176-12.724,8.176-20.343v-34.205C366.63,373.604,355.426,361.241,340.981,359.395z M221.265,50.772
			c0-19.155,15.583-34.739,34.739-34.739s34.739,15.584,34.739,34.739c0,10.173-4.31,19.581-11.909,26.188h-22.831h-22.83
			C225.575,70.354,221.265,60.946,221.265,50.772z M238.368,119.716V92.994h35.273v26.722h-9.62v-0.534
			c0-4.427-3.588-8.017-8.017-8.017c-4.428,0-8.017,3.589-8.017,8.017v0.534H238.368z M256.019,193.314
			c11.144,0,22.18,1.627,32.898,4.843l-16.957,58.456c-5.121-1.586-10.491-2.407-15.887-2.407c-4.444,0-8.913,0.575-13.237,1.689
			l-16.451-58.661C236.059,194.63,245.995,193.314,256.019,193.314z M324.948,361.85c-10.087,4.663-17.107,14.87-17.107,26.692
			v22.39l-30.558,31.872c-7.618,6.713-17.392,10.406-27.555,10.406h-3.883c-22.987,0-41.687-18.7-41.687-41.687v-89.156
			c0-21.316,9.355-41.116,25.387-54.485l0.156,0.555c0.633,2.254,2.219,4.12,4.343,5.106c2.124,0.987,4.571,0.995,6.703,0.022
			c4.776-2.177,10.075-3.329,15.326-3.329c6.063,0,12.07,1.474,17.372,4.263c4.429,2.328,10.041-0.072,11.431-4.862l3.581-12.341
			c2.623,1.085,5.163,2.353,7.575,3.833l14.99,29.547c3.115,6.139,8.11,10.701,13.926,13.373V361.85z M332.966,265.086
			c-4.428,0-8.017,3.589-8.017,8.017v9.587l-15.605-30.757c-0.623-1.229-1.553-2.277-2.699-3.041
			c-4.283-2.858-8.878-5.225-13.696-7.076l7.46-25.714c9.668,3.442,18.639,8.352,26.717,14.635c1.545,1.201,2.828,2.758,3.713,4.501
			l18.312,36.095c3.333,6.57,0.699,14.628-5.869,17.961c-0.75,0.38-1.521,0.673-2.3,0.901v-17.092
			C340.982,268.675,337.394,265.086,332.966,265.086z"/>
	</g>
</g>
</svg>