<?xml version="1.0" encoding="iso-8859-1"?>
<!-- Uploaded to: SVG Repo, www.svgrepo.com, Generator: SVG Repo Mixer Tools -->
<svg fill="#000000" height="800px" width="800px" version="1.1" id="Layer_1" xmlns="http://www.w3.org/2000/svg" xmlns:xlink="http://www.w3.org/1999/xlink" 
	 viewBox="0 0 512 512" xml:space="preserve">
<g>
	<g>
		<g>
			<path d="M470.531,272.399c0-18.568,0-64.91,0-65.057c0-6.017-4.877-10.894-10.894-10.894H341.81l-6.683-61.168l69.135-45.854
				v27.33c-12.679,4.497-21.787,16.605-21.787,30.807c0,18.02,14.661,32.681,32.681,32.681s32.681-14.661,32.681-32.681
				c0-14.202-9.109-26.311-21.789-30.808c-0.005-14.96-0.016-46.892-0.022-47.014c0.071-1.244-0.064-2.513-0.44-3.757
				c-1.387-4.6-5.624-7.749-10.43-7.749h-88.447l-5.302-48.527C320.801,4.184,316.134,0,310.576,0H201.422
				c-0.038,0-0.075,0.005-0.113,0.005c-0.104,0.002-0.207,0.01-0.31,0.014c-5.369,0.208-9.817,4.306-10.406,9.69l-5.302,48.527
				H96.844c-4.805,0-9.043,3.148-10.43,7.749c-0.375,1.244-0.51,2.513-0.44,3.757c-0.005,0.122-0.016,32.053-0.022,47.014
				c-12.68,4.497-21.789,16.605-21.789,30.808c0,18.02,14.661,32.681,32.681,32.681c18.02,0,32.681-14.661,32.681-32.681
				c0-14.201-9.108-26.31-21.787-30.807v-27.33l69.135,45.853l-6.683,61.169H52.362c-4.703,0-8.875,3.019-10.347,7.486
				c-0.437,1.328-0.6,2.694-0.523,4.033c-0.005,0.124-0.017,45.974-0.022,64.431c-12.68,4.497-21.789,16.605-21.789,30.807
				c0,18.02,14.661,32.681,32.681,32.681s32.681-14.661,32.681-32.681c0-14.201-9.108-26.31-21.787-30.807v-43.463l95.66,70.683
				l-16.065,147.019H98.042c-6.017,0-10.894,4.877-10.894,10.894v43.574c0,6.017,4.877,10.894,10.894,10.894h315.915
				c6.017,0,10.894-4.877,10.894-10.894v-43.574c0-6.017-4.877-10.894-10.894-10.894h-44.809l-16.065-147.019l17.164-12.682
				c4.839-3.575,5.863-10.396,2.288-15.235c-3.575-4.839-10.398-5.864-15.235-2.288l-6.954,5.139l-6.154-56.318h104.553v54.163
				c-12.679,4.497-21.787,16.605-21.787,30.807c0,18.02,14.661,32.681,32.681,32.681c18.02,0,32.681-14.661,32.681-32.681
				C492.318,289.004,483.21,276.896,470.531,272.399z M415.155,136.67c6.007,0,10.894,4.887,10.894,10.894
				c0,6.007-4.887,10.894-10.894,10.894c-6.007,0-10.894-4.887-10.894-10.894C404.262,141.557,409.148,136.67,415.155,136.67z
				 M96.844,158.457c-6.007,0-10.894-4.887-10.894-10.894c0-6.007,4.887-10.894,10.894-10.894c6.007,0,10.894,4.887,10.894,10.894
				C107.737,153.571,102.85,158.457,96.844,158.457z M52.362,314.099c-6.007,0-10.894-4.887-10.894-10.894
				s4.887-10.894,10.894-10.894s10.894,4.887,10.894,10.894S58.369,314.099,52.362,314.099z M379.022,80.023l-46.559,30.88
				l-3.374-30.88H379.022z M322.979,224.686l5.53,50.604l-49.553-26.797L322.979,224.686z M194.249,305.566h123.61l-61.805,72.561
				L194.249,305.566z M285.789,446.638h-59.471l29.736-34.911L285.789,446.638z M298.402,283.779h-84.696l42.348-22.901
				L298.402,283.779z M223.003,218.235h66.102l-33.051,17.873L223.003,218.235z M311.461,119.285h-30.297
				c-6.017,0-10.894,4.877-10.894,10.894s4.877,10.894,10.894,10.894h32.679l5.111,46.78l-105.893-57.078l94.721-45.158
				L311.461,119.285z M300.808,21.787l3.117,28.527l-56.586-28.527H300.808z M204.827,80.023h34.215
				c6.017,0,10.894-4.877,10.894-10.894s-4.877-10.894-10.894-10.894h-31.833l3.343-30.596l81.757,41.217l-91.001,43.385
				L204.827,80.023z M197.494,147.134l91.488,49.314h-96.877L197.494,147.134z M189.027,224.631l44.126,23.862l-49.668,26.859
				L189.027,224.631z M132.978,80.023h49.932l-3.374,30.879L132.978,80.023z M178.527,320.709l63.216,74.218l-44.045,51.711h-32.93
				L178.527,320.709z M85.436,218.235h82.372l-6.154,56.318L85.436,218.235z M403.063,468.426v21.787H108.936v-21.787H403.063z
				 M347.231,446.638h-32.822l-44.045-51.711l63.12-74.105L347.231,446.638z M459.637,314.099c-6.007,0-10.894-4.887-10.894-10.894
				s4.887-10.894,10.894-10.894c6.007,0,10.894,4.887,10.894,10.894S465.644,314.099,459.637,314.099z"/>
			<path d="M396.76,240.718l-2.179,1.089c-5.381,2.691-7.562,9.234-4.872,14.616c1.909,3.817,5.756,6.024,9.752,6.024
				c1.636,0,3.3-0.37,4.863-1.153l2.179-1.089c5.381-2.691,7.562-9.235,4.872-14.616C408.685,240.21,402.144,238.028,396.76,240.718
				z"/>
		</g>
	</g>
</g>
</svg>